<svg width="24" height="24" viewBox="0 0 24 24" fill="none" xmlns="http://www.w3.org/2000/svg">
<path d="M15.292 15.462L19.172 11.582L15.292 7.70202C15.1994 7.60944 15.126 7.49953 15.0759 7.37857C15.0258 7.2576 15 7.12796 15 6.99703C15 6.8661 15.0258 6.73645 15.0759 6.61548C15.126 6.49452 15.1994 6.38461 15.292 6.29202C15.3846 6.19944 15.4945 6.126 15.6155 6.0759C15.7364 6.02579 15.8661 6.00001 15.997 6.00001C16.128 6.00001 16.2576 6.02579 16.3786 6.0759C16.4995 6.126 16.6094 6.19944 16.702 6.29202L21.292 10.882C21.3847 10.9745 21.4583 11.0844 21.5085 11.2054C21.5586 11.3264 21.5845 11.4561 21.5845 11.587C21.5845 11.718 21.5586 11.8477 21.5085 11.9686C21.4583 12.0896 21.3847 12.1995 21.292 12.292L16.702 16.882C16.6095 16.9747 16.4996 17.0483 16.3786 17.0985C16.2577 17.1486 16.128 17.1745 15.997 17.1745C15.8661 17.1745 15.7364 17.1486 15.6154 17.0985C15.4944 17.0483 15.3845 16.9747 15.292 16.882C14.912 16.492 14.902 15.852 15.292 15.462Z" fill="white"/>
<path d="M20 11.5H3" stroke="white" stroke-width="2" stroke-linecap="round"/>
</svg>
